G04 ===== Begin FILE IDENTIFICATION =====*
G04 File Format:  Gerber RS274X*
G04 ===== End FILE IDENTIFICATION =====*
%FSLAX24Y24*%
%MOMM*%
%SFA1.0000B1.0000*%
%OFA0.0B0.0*%
%ADD14R,0.202000X1.000000*%
%ADD15R,0.250000X0.530000*%
%ADD16R,1.000000X1.000000*%
%ADD17R,2.000000X1.000000*%
%ADD18R,0.530000X0.250000*%
%ADD19R,0.300000X0.150000*%
%ADD20C,0.015000*%
%ADD21R,1.000000X0.100000*%
%ADD22R,0.889000X0.584000*%
%ADD23R,0.290375X0.145188*%
%ADD24R,0.500000X1.000000*%
%ADD25R,1.000000X0.050000*%
%ADD26R,0.990000X0.622000*%
%ADD27R,2.500000X1.000000*%
%ADD28R,0.150000X0.300000*%
%ADD29C,0.000025*%
%LNcond*%
%IPPOS*%
%LPD*%
G75*
G36*
G01X348504Y-6727D02*
G01Y-16727D01*
G01X338504D01*
G01Y-6727D01*
G01X348504D01*
G37*
G36*
G01X180450Y-8400D02*
G01Y-18400D01*
G01X190450D01*
G01Y-8400D01*
G01X180450D01*
G37*
D14*
X179440Y-13400D03*
G36*
G01X168430Y-18400D02*
G01Y-8400D01*
G01X150030Y-10750D01*
G01Y-16050D01*
G01X168430Y-18400D01*
G37*
D15*
X142680Y-13400D03*
X148780D03*
G36*
G01X113930Y-8400D02*
G01Y-18400D01*
G01X141430Y-16050D01*
G01Y-10750D01*
G01X113930Y-8400D01*
G37*
D16*
X108930Y-13400D03*
G36*
G01X93930Y-8400D02*
G01Y-18400D01*
G01X103930D01*
G01Y-8400D01*
G01X93930D01*
G37*
D17*
X83930Y-13400D03*
G36*
G01X103930Y-18400D02*
G01X93930D01*
G01X96280Y-78400D01*
G01X101580D01*
G01X103930Y-18400D01*
G37*
D18*
X98930Y-79650D03*
Y-85750D03*
G36*
G01X93930Y-147000D02*
G01X103930D01*
G01X101580Y-87000D01*
G01X96280D01*
G01X93930Y-147000D01*
G37*
D16*
X98930Y-152000D03*
D19*
Y-157750D03*
D20*
Y-157000D03*
G36*
G01X190450Y-18400D02*
G01X180450D01*
G01X182800Y-58400D01*
G01X188100D01*
G01X190450Y-18400D01*
G37*
D18*
X185450Y-59650D03*
Y-65750D03*
G36*
G01X180450Y-127000D02*
G01X190450D01*
G01X188100Y-67000D01*
G01X182800D01*
G01X180450Y-127000D01*
G37*
D21*
X185450Y-127500D03*
D19*
Y-128750D03*
D20*
Y-128000D03*
D16*
X343504Y-152277D03*
G36*
G01X348504Y-147277D02*
G01X338504D01*
G01X339059Y-77277D01*
G01X347949D01*
G01X348504Y-147277D01*
G37*
D22*
X343504Y-61147D03*
Y-74357D03*
G36*
G01X353504Y-16727D02*
G01X363504D01*
G01X363454Y-34227D01*
G01X353554D01*
G01X353504Y-16727D01*
G37*
D23*
X358504Y-63989D03*
D20*
Y-63263D03*
D24*
X351004Y-11727D03*
D25*
X358455Y-63013D03*
D16*
X173430Y-13400D03*
D26*
X358504Y-37337D03*
Y-49653D03*
G36*
G01X363504Y-6727D02*
G01Y-16727D01*
G01X353504D01*
G01Y-6727D01*
G01X363504D01*
G37*
G36*
G01X363504Y-62763D02*
G01X353504D01*
G01X353554Y-52763D01*
G01X363454D01*
G01X363504Y-62763D01*
G37*
D19*
X343504Y-158027D03*
D20*
Y-157277D03*
G36*
G01X338504Y-16727D02*
G01X348504D01*
G01X347949Y-58227D01*
G01X339059D01*
G01X338504Y-16727D01*
G37*
D16*
X333504Y-11727D03*
G36*
G01X328504Y-6727D02*
G01Y-16727D01*
G01X268504Y-13527D01*
G01Y-9927D01*
G01X328504Y-6727D01*
G37*
D27*
X259761Y-31656D03*
D28*
X246511D03*
D20*
X247261D03*
G36*
G01X190450Y-18400D02*
G01Y-8400D01*
G01X250450Y-9600D01*
G01Y-17200D01*
G01X190450Y-18400D01*
G37*
D17*
X373504Y-11727D03*
D29*
G01X358455Y-62763D02*
G01Y-63263D01*
G01X328504Y-11727D02*
G01X328503D01*
G01Y-11794D01*
G01X328504D01*
G01X358455Y-63263D02*
G01X358504D01*
G01X358455Y-62763D02*
G01X358504D01*
M02*

