G04 ===== Begin FILE IDENTIFICATION =====*
G04 File Format:  Gerber RS274X*
G04 ===== End FILE IDENTIFICATION =====*
%FSLAX24Y24*%
%MOMM*%
%SFA1.0000B1.0000*%
%OFA0.0B0.0*%
%ADD14R,5.000000X1.000000*%
%ADD15R,0.250000X0.530000*%
%ADD16R,8.158000X1.000000*%
%ADD17R,6.000000X1.000000*%
%ADD18R,0.530000X0.250000*%
%ADD19R,1.000000X1.000000*%
%ADD20R,0.300000X0.150000*%
%ADD21C,0.300000*%
%ADD22R,1.000000X2.000000*%
%ADD23R,0.300125X0.150063*%
%ADD24R,0.840000X1.000000*%
%ADD25R,0.889000X0.584000*%
%ADD26R,0.150000X0.300000*%
%ADD27R,0.305000X0.152500*%
%ADD28R,0.300000X1.000000*%
%ADD29R,1.000000X0.050000*%
%ADD30R,0.990000X0.622000*%
%ADD31R,0.050000X1.000000*%
%ADD32C,0.000025*%
%LNcond*%
%IPPOS*%
%LPD*%
G75*
G36*
G01X245423Y126217D02*
G01Y116217D01*
G01X255423D01*
G01Y126217D01*
G01X245423D01*
G37*
G36*
G01X96939Y123735D02*
G01Y113735D01*
G01X106939D01*
G01Y123735D01*
G01X96939D01*
G37*
D14*
X71964Y118674D03*
G36*
G01X46967Y113694D02*
G01Y123694D01*
G01X2767Y121344D01*
G01Y116044D01*
G01X46967Y113694D01*
G37*
D15*
X-4583Y118694D03*
X1517D03*
G36*
G01X-98633Y123694D02*
G01Y113694D01*
G01X-5833Y116044D01*
G01Y121344D01*
G01X-98633Y123694D01*
G37*
D16*
X-139423Y118694D03*
G36*
G01X-190213Y123694D02*
G01Y113694D01*
G01X-180213D01*
G01Y123694D01*
G01X-190213D01*
G37*
D17*
X-220213Y118694D03*
G36*
G01X-180213Y113694D02*
G01X-190213D01*
G01X-187863Y103694D01*
G01X-182563D01*
G01X-180213Y113694D01*
G37*
D18*
X-185213Y102444D03*
Y96344D03*
G36*
G01X-190213Y85094D02*
G01X-180213D01*
G01X-182563Y95094D01*
G01X-187863D01*
G01X-190213Y85094D01*
G37*
D19*
X-185213Y80094D03*
D20*
Y74344D03*
D21*
Y75094D03*
G36*
G01X106939Y113735D02*
G01X96939D01*
G01X99289Y73735D01*
G01X104589D01*
G01X106939Y113735D01*
G37*
D18*
X101939Y72485D03*
Y66385D03*
G36*
G01X96939Y-34865D02*
G01X106939D01*
G01X104589Y65135D01*
G01X99289D01*
G01X96939Y-34865D01*
G37*
D22*
X101939Y-44865D03*
D23*
Y-55615D03*
D21*
Y-54865D03*
D24*
X241223Y121217D03*
D19*
X250423Y-67833D03*
G36*
G01X245423Y-62833D02*
G01X255423D01*
G01X254868Y37167D01*
G01X245978D01*
G01X245423Y-62833D01*
G37*
D25*
X250423Y53297D03*
Y40087D03*
D26*
X186233Y101517D03*
D21*
X185483D03*
G36*
G01X268423Y116217D02*
G01X258423D01*
G01X258473Y98217D01*
G01X268373D01*
G01X268423Y116217D01*
G37*
D27*
X263423Y67219D03*
D21*
Y67981D03*
D28*
X256923Y121217D03*
D29*
X263423Y68231D03*
D17*
X298423Y121217D03*
D30*
X263423Y95107D03*
Y82791D03*
G36*
G01X258423Y126217D02*
G01Y116217D01*
G01X268423D01*
G01Y126217D01*
G01X258423D01*
G37*
G36*
G01X258423Y68481D02*
G01X268423D01*
G01X268373Y79681D01*
G01X258473D01*
G01X258423Y68481D01*
G37*
D20*
X250423Y-73583D03*
D21*
Y-72833D03*
G36*
G01X255423Y116217D02*
G01X245423D01*
G01X245978Y56217D01*
G01X254868D01*
G01X255423Y116217D01*
G37*
D26*
X161833Y101517D03*
D21*
X161083D03*
D14*
X131939Y118735D03*
G36*
G01X237023Y116217D02*
G01Y126217D01*
G01X180983Y123017D01*
G01Y119417D01*
G01X237023Y116217D01*
G37*
D31*
X185233Y101517D03*
G36*
G01X162583Y106517D02*
G01Y96517D01*
G01X173783Y96567D01*
G01Y106467D01*
G01X162583Y106517D01*
G37*
G36*
G01X184983Y96517D02*
G01Y106517D01*
G01X173783Y106467D01*
G01Y96567D01*
G01X184983Y96517D01*
G37*
G36*
G01X156939Y113735D02*
G01Y123735D01*
G01X166939Y122535D01*
G01Y114935D01*
G01X156939Y113735D01*
G37*
G36*
G01X75209Y10825D02*
G01X75218Y10823D01*
G01X75208Y10805D01*
G01X75189Y10799D01*
G01X75170Y10803D01*
G01X75159Y10817D01*
G01X75155Y10836D01*
G01X75159Y10856D01*
G01X75171Y10868D01*
G01X75189Y10873D01*
G01X75207Y10867D01*
G01X75217Y10852D01*
G01X75208Y10850D01*
G01X75200Y10861D01*
G01X75189Y10865D01*
G01X75175Y10861D01*
G01X75167Y10850D01*
G01X75165Y10836D01*
G01X75167Y10820D01*
G01X75176Y10810D01*
G01X75188Y10807D01*
G01X75201Y10811D01*
G01X75209Y10825D01*
G37*
G36*
G01X75229Y10800D02*
G01Y10852D01*
G01X75237D01*
G01Y10844D01*
G01X75242Y10851D01*
G01X75248Y10853D01*
G01X75257Y10850D01*
G01X75254Y10842D01*
G01X75247Y10844D01*
G01X75242Y10842D01*
G01X75239Y10837D01*
G01X75237Y10827D01*
G01Y10800D01*
G01X75229D01*
G37*
G36*
G01X75259Y10825D02*
G01X75266Y10806D01*
G01X75284Y10799D01*
G01X75299Y10803D01*
G01X75307Y10816D01*
G01X75298Y10817D01*
G01X75292Y10809D01*
G01X75284Y10806D01*
G01X75273Y10811D01*
G01X75268Y10824D01*
G01X75307D01*
G01Y10826D01*
G01X75300Y10846D01*
G01X75283Y10853D01*
G01Y10846D01*
G01X75294Y10841D01*
G01X75298Y10831D01*
G01X75269D01*
G01X75273Y10842D01*
G01X75283Y10846D01*
G01Y10853D01*
G01X75266Y10846D01*
G01X75259Y10825D01*
G37*
G36*
G01X75316Y10837D02*
G01X75325Y10836D01*
G01X75329Y10844D01*
G01X75338Y10846D01*
G01X75348Y10843D01*
G01X75351Y10835D01*
G01Y10833D01*
G01Y10826D01*
G01Y10823D01*
G01X75349Y10814D01*
G01X75343Y10808D01*
G01X75334Y10806D01*
G01X75327Y10808D01*
G01X75324Y10814D01*
G01X75325Y10818D01*
G01X75329Y10821D01*
G01X75336Y10823D01*
G01X75351Y10826D01*
G01Y10833D01*
G01X75335Y10830D01*
G01X75327Y10829D01*
G01X75321Y10826D01*
G01X75316Y10821D01*
G01X75315Y10814D01*
G01X75319Y10803D01*
G01X75332Y10799D01*
G01X75342Y10801D01*
G01X75351Y10806D01*
G01X75353Y10800D01*
G01X75362D01*
G01X75360Y10806D01*
G01Y10822D01*
G01Y10833D01*
G01X75359Y10842D01*
G01X75356Y10848D01*
G01X75350Y10851D01*
G01X75340Y10853D01*
G01X75328Y10851D01*
G01X75320Y10846D01*
G01X75316Y10837D01*
G37*
G36*
G01X75392Y10808D02*
G01X75394Y10800D01*
G01X75387Y10799D01*
G01X75380Y10801D01*
G01X75376Y10805D01*
G01X75375Y10815D01*
G01Y10845D01*
G01X75368D01*
G01Y10852D01*
G01X75375D01*
G01Y10865D01*
G01X75384Y10870D01*
G01Y10852D01*
G01X75392D01*
G01Y10845D01*
G01X75384D01*
G01Y10815D01*
G01Y10810D01*
G01X75385Y10808D01*
G01X75388D01*
G01X75392D01*
G37*
G36*
G01X75398Y10825D02*
G01X75405Y10806D01*
G01X75423Y10799D01*
G01X75438Y10803D01*
G01X75445Y10816D01*
G01X75436Y10817D01*
G01X75431Y10809D01*
G01X75423Y10806D01*
G01X75412Y10811D01*
G01X75407Y10824D01*
G01X75446D01*
G01Y10826D01*
G01X75439Y10846D01*
G01X75422Y10853D01*
G01Y10846D01*
G01X75433Y10841D01*
G01X75436Y10831D01*
G01X75408D01*
G01X75412Y10842D01*
G01X75422Y10846D01*
G01Y10853D01*
G01X75405Y10846D01*
G01X75398Y10825D01*
G37*
G36*
G01X75453Y10826D02*
G01X75456Y10812D01*
G01X75464Y10802D01*
G01X75476Y10799D01*
G01X75490Y10807D01*
G01Y10800D01*
G01X75498D01*
G01Y10872D01*
G01X75490D01*
G01Y10846D01*
G01X75484Y10851D01*
G01X75476Y10853D01*
G01Y10846D01*
G01X75486Y10841D01*
G01X75490Y10825D01*
G01X75486Y10811D01*
G01X75476Y10806D01*
G01X75467Y10811D01*
G01X75462Y10826D01*
G01X75466Y10841D01*
G01X75476Y10846D01*
G01Y10853D01*
G01X75475D01*
G01X75464Y10850D01*
G01X75456Y10840D01*
G01X75453Y10826D01*
G37*
G36*
G01X75549Y10846D02*
G01Y10872D01*
G01X75540D01*
G01Y10800D01*
G01X75548D01*
G01Y10806D01*
G01X75562Y10799D01*
G01X75578Y10806D01*
G01X75585Y10827D01*
G01X75583Y10837D01*
G01X75579Y10846D01*
G01X75572Y10851D01*
G01X75563Y10853D01*
G01X75562D01*
G01Y10846D01*
G01X75572Y10841D01*
G01X75576Y10826D01*
G01X75572Y10811D01*
G01X75562Y10806D01*
G01X75550Y10813D01*
G01X75548Y10826D01*
G01X75552Y10841D01*
G01X75562Y10846D01*
G01Y10853D01*
G01X75549Y10846D01*
G37*
G36*
G01X75595Y10780D02*
G01X75594Y10788D01*
G01X75599Y10787D01*
G01X75604Y10788D01*
G01X75607Y10791D01*
G01X75609Y10798D01*
G01X75610Y10800D01*
G01X75590Y10852D01*
G01X75600D01*
G01X75611Y10822D01*
G01X75614Y10810D01*
G01X75618Y10822D01*
G01X75629Y10852D01*
G01X75638D01*
G01X75618Y10799D01*
G01X75613Y10787D01*
G01X75608Y10781D01*
G01X75601Y10779D01*
G01X75595Y10780D01*
G37*
G36*
G01X75671Y10823D02*
G01X75680Y10824D01*
G01X75683Y10815D01*
G01X75690Y10809D01*
G01X75701Y10807D01*
G01X75711Y10809D01*
G01X75717Y10813D01*
G01X75719Y10819D01*
G01X75717Y10825D01*
G01X75710Y10830D01*
G01X75698Y10833D01*
G01X75684Y10837D01*
G01X75676Y10844D01*
G01X75674Y10853D01*
G01X75677Y10863D01*
G01X75686Y10870D01*
G01X75699Y10873D01*
G01X75713Y10870D01*
G01X75722Y10863D01*
G01X75726Y10851D01*
G01X75717D01*
G01X75712Y10861D01*
G01X75699Y10864D01*
G01X75687Y10861D01*
G01X75683Y10854D01*
G01X75686Y10847D01*
G01X75700Y10842D01*
G01X75716Y10838D01*
G01X75725Y10830D01*
G01X75728Y10820D01*
G01X75725Y10809D01*
G01X75715Y10802D01*
G01X75702Y10799D01*
G01X75685Y10802D01*
G01X75675Y10810D01*
G01X75671Y10823D01*
G37*
G36*
G01X75759Y10808D02*
G01X75760Y10800D01*
G01X75754Y10799D01*
G01X75746Y10801D01*
G01X75742Y10805D01*
G01X75741Y10815D01*
G01Y10845D01*
G01X75735D01*
G01Y10852D01*
G01X75741D01*
G01Y10865D01*
G01X75750Y10870D01*
G01Y10852D01*
G01X75759D01*
G01Y10845D01*
G01X75750D01*
G01Y10815D01*
G01X75751Y10810D01*
G01X75752Y10808D01*
G01X75755D01*
G01X75759D01*
G37*
G36*
G01X75765Y10825D02*
G01X75771Y10806D01*
G01X75789Y10799D01*
G01X75804Y10803D01*
G01X75812Y10816D01*
G01X75803Y10817D01*
G01X75798Y10809D01*
G01X75789Y10806D01*
G01X75779Y10811D01*
G01X75774Y10824D01*
G01X75812D01*
G01Y10826D01*
G01X75806Y10846D01*
G01X75789Y10853D01*
G01Y10846D01*
G01X75800Y10841D01*
G01X75803Y10831D01*
G01X75774D01*
G01X75779Y10842D01*
G01X75789Y10846D01*
G01Y10853D01*
G01X75771Y10846D01*
G01X75765Y10825D01*
G37*
G36*
G01X75831Y10845D02*
G01Y10852D01*
G01X75823D01*
G01Y10780D01*
G01X75832D01*
G01Y10805D01*
G01X75838Y10801D01*
G01X75846Y10799D01*
G01X75857Y10802D01*
G01X75865Y10812D01*
G01X75868Y10826D01*
G01X75866Y10840D01*
G01X75858Y10850D01*
G01X75846Y10853D01*
G01X75845D01*
G01Y10846D01*
G01X75855Y10841D01*
G01X75859Y10826D01*
G01X75855Y10811D01*
G01X75845Y10806D01*
G01X75835Y10811D01*
G01X75831Y10826D01*
G01X75835Y10841D01*
G01X75845Y10846D01*
G01Y10853D01*
G01X75837Y10851D01*
G01X75831Y10845D01*
G37*
G36*
G01X75879Y10800D02*
G01Y10872D01*
G01X75887D01*
G01Y10846D01*
G01X75903Y10853D01*
G01X75913Y10851D01*
G01X75919Y10844D01*
G01X75921Y10833D01*
G01Y10800D01*
G01X75912D01*
G01Y10833D01*
G01X75909Y10842D01*
G01X75901Y10845D01*
G01X75894Y10843D01*
G01X75889Y10838D01*
G01X75887Y10828D01*
G01Y10800D01*
G01X75879D01*
G37*
G36*
G01X75931Y10825D02*
G01X75938Y10806D01*
G01X75956Y10799D01*
G01X75971Y10803D01*
G01X75979Y10816D01*
G01X75970Y10817D01*
G01X75964Y10809D01*
G01X75956Y10806D01*
G01X75945Y10811D01*
G01X75940Y10824D01*
G01X75979D01*
G01Y10826D01*
G01X75972Y10846D01*
G01X75956Y10853D01*
G01Y10846D01*
G01X75966Y10841D01*
G01X75970Y10831D01*
G01X75941D01*
G01X75945Y10842D01*
G01X75956Y10846D01*
G01Y10853D01*
G01X75938Y10846D01*
G01X75931Y10825D01*
G37*
G36*
G01X75990Y10800D02*
G01Y10852D01*
G01X75998D01*
G01Y10844D01*
G01X76014Y10853D01*
G01X76023Y10851D01*
G01X76029Y10847D01*
G01X76031Y10840D01*
G01X76032Y10832D01*
G01Y10800D01*
G01X76023D01*
G01Y10832D01*
G01X76022Y10840D01*
G01X76018Y10844D01*
G01X76012Y10845D01*
G01X76003Y10842D01*
G01X75999Y10828D01*
G01Y10800D01*
G01X75990D01*
G37*
G36*
G01X76069Y10820D02*
G01X76078Y10821D01*
G01X76081Y10810D01*
G01X76089Y10807D01*
G01X76095Y10809D01*
G01X76098Y10813D01*
G01X76099Y10822D01*
G01Y10872D01*
G01X76109D01*
G01Y10823D01*
G01X76107Y10809D01*
G01X76100Y10801D01*
G01X76089Y10799D01*
G01X76074Y10804D01*
G01X76069Y10820D01*
G37*
G36*
G01X76120Y10826D02*
G01X76127Y10806D01*
G01X76144Y10799D01*
G01X76157Y10802D01*
G01X76165Y10811D01*
G01X76168Y10827D01*
G01X76162Y10846D01*
G01X76144Y10853D01*
G01Y10846D01*
G01X76155Y10841D01*
G01X76159Y10826D01*
G01X76155Y10811D01*
G01X76144Y10806D01*
G01X76133Y10811D01*
G01X76129Y10826D01*
G01X76133Y10841D01*
G01X76144Y10846D01*
G01Y10853D01*
G01X76128Y10847D01*
G01X76120Y10826D01*
G37*
G36*
G01X76179Y10800D02*
G01Y10872D01*
G01X76187D01*
G01Y10846D01*
G01X76203Y10853D01*
G01X76213Y10851D01*
G01X76219Y10844D01*
G01X76221Y10833D01*
G01Y10800D01*
G01X76212D01*
G01Y10833D01*
G01X76209Y10842D01*
G01X76201Y10845D01*
G01X76194Y10843D01*
G01X76189Y10838D01*
G01X76187Y10828D01*
G01Y10800D01*
G01X76179D01*
G37*
G36*
G01X76234Y10800D02*
G01Y10852D01*
G01X76242D01*
G01Y10844D01*
G01X76259Y10853D01*
G01X76267Y10851D01*
G01X76273Y10847D01*
G01X76276Y10840D01*
G01Y10832D01*
G01Y10800D01*
G01X76268D01*
G01Y10832D01*
G01X76267Y10840D01*
G01X76263Y10844D01*
G01X76257Y10845D01*
G01X76247Y10842D01*
G01X76243Y10828D01*
G01Y10800D01*
G01X76234D01*
G37*
G36*
G01X76286Y10815D02*
G01X76295Y10817D01*
G01X76299Y10809D01*
G01X76308Y10806D01*
G01X76317Y10809D01*
G01X76320Y10814D01*
G01X76318Y10819D01*
G01X76309Y10822D01*
G01X76295Y10826D01*
G01X76290Y10831D01*
G01X76288Y10838D01*
G01X76289Y10845D01*
G01X76294Y10849D01*
G01X76299Y10852D01*
G01X76307Y10853D01*
G01X76318Y10851D01*
G01X76324Y10847D01*
G01X76327Y10838D01*
G01X76319Y10837D01*
G01X76315Y10844D01*
G01X76307Y10846D01*
G01X76299Y10844D01*
G01X76296Y10839D01*
G01X76297Y10836D01*
G01X76301Y10834D01*
G01X76308Y10831D01*
G01X76321Y10827D01*
G01X76327Y10823D01*
G01X76329Y10815D01*
G01X76327Y10807D01*
G01X76319Y10801D01*
G01X76308Y10799D01*
G01X76293Y10803D01*
G01X76286Y10815D01*
G37*
G36*
G01X76359Y10808D02*
G01X76360Y10800D01*
G01X76354Y10799D01*
G01X76346Y10801D01*
G01X76342Y10805D01*
G01X76341Y10815D01*
G01Y10845D01*
G01X76335D01*
G01Y10852D01*
G01X76341D01*
G01Y10865D01*
G01X76350Y10870D01*
G01Y10852D01*
G01X76359D01*
G01Y10845D01*
G01X76350D01*
G01Y10815D01*
G01X76351Y10810D01*
G01X76352Y10808D01*
G01X76355D01*
G01X76359D01*
G37*
G36*
G01X76364Y10826D02*
G01X76371Y10806D01*
G01X76389Y10799D01*
G01X76401Y10802D01*
G01X76410Y10811D01*
G01X76413Y10827D01*
G01X76406Y10846D01*
G01X76389Y10853D01*
G01Y10846D01*
G01X76399Y10841D01*
G01X76404Y10826D01*
G01X76399Y10811D01*
G01X76389Y10806D01*
G01X76378Y10811D01*
G01X76373Y10826D01*
G01X76378Y10841D01*
G01X76389Y10846D01*
G01Y10853D01*
G01X76372Y10847D01*
G01X76364Y10826D01*
G37*
G36*
G01X76423Y10800D02*
G01Y10852D01*
G01X76431D01*
G01Y10844D01*
G01X76448Y10853D01*
G01X76456Y10851D01*
G01X76462Y10847D01*
G01X76465Y10840D01*
G01Y10832D01*
G01Y10800D01*
G01X76456D01*
G01Y10832D01*
G01X76455Y10840D01*
G01X76452Y10844D01*
G01X76446Y10845D01*
G01X76436Y10842D01*
G01X76432Y10828D01*
G01Y10800D01*
G01X76423D01*
G37*
G36*
G01X222714Y-61408D02*
G01X222705Y-61405D01*
G01X222716Y-61387D01*
G01X222734Y-61381D01*
G01X222753Y-61386D01*
G01X222764Y-61400D01*
G01X222768Y-61419D01*
G01X222764Y-61438D01*
G01X222752Y-61451D01*
G01X222734Y-61455D01*
G01X222716Y-61450D01*
G01X222706Y-61435D01*
G01X222715Y-61432D01*
G01X222723Y-61444D01*
G01X222735Y-61447D01*
G01X222748Y-61443D01*
G01X222756Y-61433D01*
G01X222758Y-61419D01*
G01X222756Y-61403D01*
G01X222747Y-61393D01*
G01X222735Y-61389D01*
G01X222722Y-61394D01*
G01X222714Y-61408D01*
G37*
G36*
G01X222694Y-61383D02*
G01Y-61434D01*
G01X222686D01*
G01Y-61427D01*
G01X222681Y-61434D01*
G01X222675Y-61436D01*
G01X222666Y-61433D01*
G01X222669Y-61425D01*
G01X222676Y-61426D01*
G01X222681Y-61425D01*
G01X222684Y-61420D01*
G01X222686Y-61410D01*
G01Y-61383D01*
G01X222694D01*
G37*
G36*
G01X222616Y-61398D02*
G01X222626Y-61399D01*
G01X222631Y-61391D01*
G01X222639Y-61389D01*
G01X222650Y-61393D01*
G01X222655Y-61406D01*
G01X222625D01*
G01Y-61413D01*
G01X222654D01*
G01X222650Y-61424D01*
G01X222640Y-61428D01*
G01X222629Y-61423D01*
G01X222625Y-61413D01*
G01Y-61406D01*
G01X222616D01*
G01Y-61409D01*
G01X222623Y-61428D01*
G01X222640Y-61436D01*
G01X222657Y-61428D01*
G01X222664Y-61408D01*
G01X222657Y-61388D01*
G01X222639Y-61381D01*
G01X222624Y-61386D01*
G01X222616Y-61398D01*
G37*
G36*
G01X222561Y-61383D02*
G01X222563Y-61389D01*
G01Y-61404D01*
G01Y-61416D01*
G01X222564Y-61424D01*
G01X222567Y-61430D01*
G01X222573Y-61434D01*
G01X222584Y-61436D01*
G01X222595Y-61434D01*
G01X222603Y-61429D01*
G01X222607Y-61420D01*
G01X222598Y-61418D01*
G01X222594Y-61426D01*
G01X222585Y-61428D01*
G01X222575Y-61425D01*
G01X222572Y-61418D01*
G01Y-61415D01*
G01X222588Y-61412D01*
G01X222596Y-61411D01*
G01X222602Y-61408D01*
G01X222607Y-61403D01*
G01X222608Y-61396D01*
G01X222604Y-61386D01*
G01X222591Y-61381D01*
G01X222589Y-61382D01*
G01Y-61388D01*
G01X222596Y-61391D01*
G01X222599Y-61396D01*
G01X222598Y-61401D01*
G01X222594Y-61403D01*
G01X222587Y-61405D01*
G01X222572Y-61409D01*
G01Y-61405D01*
G01X222574Y-61397D01*
G01X222580Y-61390D01*
G01X222589Y-61388D01*
G01Y-61382D01*
G01X222581Y-61383D01*
G01X222572Y-61389D01*
G01X222570Y-61383D01*
G01X222561D01*
G37*
G36*
G01X222531Y-61390D02*
G01X222529Y-61383D01*
G01X222536Y-61382D01*
G01X222544Y-61383D01*
G01X222547Y-61387D01*
G01X222548Y-61398D01*
G01Y-61428D01*
G01X222555D01*
G01Y-61434D01*
G01X222548D01*
G01Y-61447D01*
G01X222540Y-61453D01*
G01Y-61434D01*
G01X222531D01*
G01Y-61428D01*
G01X222540D01*
G01Y-61397D01*
G01X222539Y-61392D01*
G01X222538Y-61391D01*
G01X222535Y-61390D01*
G01X222531D01*
G37*
G36*
G01X222478Y-61398D02*
G01X222487Y-61399D01*
G01X222492Y-61391D01*
G01X222500Y-61389D01*
G01X222511Y-61393D01*
G01X222516Y-61406D01*
G01X222487D01*
G01Y-61413D01*
G01X222516D01*
G01X222511Y-61424D01*
G01X222501Y-61428D01*
G01X222490Y-61423D01*
G01X222487Y-61413D01*
G01Y-61406D01*
G01X222477D01*
G01Y-61409D01*
G01X222484Y-61428D01*
G01X222501Y-61436D01*
G01X222518Y-61428D01*
G01X222525Y-61408D01*
G01X222518Y-61388D01*
G01X222500Y-61381D01*
G01X222486Y-61386D01*
G01X222478Y-61398D01*
G37*
G36*
G01X222433Y-61389D02*
G01Y-61383D01*
G01X222425D01*
G01Y-61454D01*
G01X222434D01*
G01Y-61428D01*
G01X222440Y-61434D01*
G01X222448Y-61436D01*
G01X222459Y-61432D01*
G01X222467Y-61423D01*
G01X222470Y-61408D01*
G01X222467Y-61394D01*
G01X222459Y-61385D01*
G01X222447Y-61381D01*
G01Y-61382D01*
G01Y-61389D01*
G01X222457Y-61394D01*
G01X222461Y-61408D01*
G01X222457Y-61424D01*
G01X222447Y-61428D01*
G01X222437Y-61423D01*
G01X222433Y-61408D01*
G01X222437Y-61393D01*
G01X222447Y-61389D01*
G01Y-61382D01*
G01X222433Y-61389D01*
G37*
G36*
G01X222329Y-61403D02*
G01X222332Y-61414D01*
G01X222342Y-61421D01*
G01X222334Y-61427D01*
G01X222332Y-61436D01*
G01X222335Y-61445D01*
G01X222343Y-61452D01*
G01X222356Y-61454D01*
G01X222383D01*
G01Y-61383D01*
G01X222355D01*
G01Y-61391D01*
G01X222373D01*
G01Y-61416D01*
G01X222358D01*
G01Y-61424D01*
G01X222373D01*
G01Y-61446D01*
G01X222359D01*
G01X222348Y-61445D01*
G01X222343Y-61441D01*
G01X222341Y-61435D01*
G01X222343Y-61428D01*
G01X222349Y-61425D01*
G01X222358Y-61424D01*
G01Y-61416D01*
G01X222357D01*
G01X222346Y-61414D01*
G01X222340Y-61410D01*
G01X222338Y-61403D01*
G01X222340Y-61397D01*
G01X222343Y-61393D01*
G01X222349Y-61391D01*
G01X222355D01*
G01Y-61383D01*
G01X222344Y-61384D01*
G01X222336Y-61387D01*
G01X222331Y-61394D01*
G01X222329Y-61403D01*
G37*
G36*
G01X222317Y-61363D02*
G01X222318Y-61371D01*
G01X222313Y-61370D01*
G01X222308Y-61371D01*
G01X222305Y-61374D01*
G01X222303Y-61380D01*
G01X222302Y-61382D01*
G01X222322Y-61434D01*
G01X222312D01*
G01X222301Y-61404D01*
G01X222298Y-61392D01*
G01X222294Y-61404D01*
G01X222283Y-61434D01*
G01X222274D01*
G01X222294Y-61382D01*
G01X222299Y-61370D01*
G01X222304Y-61364D01*
G01X222311Y-61362D01*
G01X222317Y-61363D01*
G37*
G36*
G01X222241Y-61406D02*
G01X222232D01*
G01X222229Y-61398D01*
G01X222222Y-61392D01*
G01X222211Y-61390D01*
G01X222201Y-61391D01*
G01X222195Y-61396D01*
G01X222193Y-61402D01*
G01X222195Y-61408D01*
G01X222202Y-61412D01*
G01X222214Y-61416D01*
G01X222228Y-61420D01*
G01X222236Y-61427D01*
G01X222238Y-61436D01*
G01X222235Y-61446D01*
G01X222226Y-61453D01*
G01X222213Y-61455D01*
G01X222199Y-61453D01*
G01X222190Y-61445D01*
G01X222186Y-61434D01*
G01X222195Y-61433D01*
G01X222200Y-61444D01*
G01X222213Y-61447D01*
G01X222225Y-61444D01*
G01X222229Y-61436D01*
G01X222226Y-61430D01*
G01X222212Y-61425D01*
G01X222196Y-61420D01*
G01X222187Y-61413D01*
G01X222184Y-61403D01*
G01X222187Y-61392D01*
G01X222197Y-61384D01*
G01X222210Y-61381D01*
G01X222227Y-61384D01*
G01X222237Y-61393D01*
G01X222241Y-61406D01*
G37*
G36*
G01X222153Y-61390D02*
G01X222152Y-61383D01*
G01X222158Y-61382D01*
G01X222166Y-61383D01*
G01X222169Y-61387D01*
G01X222171Y-61398D01*
G01Y-61428D01*
G01X222177D01*
G01Y-61434D01*
G01X222171D01*
G01Y-61447D01*
G01X222162Y-61453D01*
G01Y-61434D01*
G01X222153D01*
G01Y-61428D01*
G01X222162D01*
G01Y-61397D01*
G01X222161Y-61392D01*
G01X222160Y-61391D01*
G01X222157Y-61390D01*
G01X222153D01*
G37*
G36*
G01X222100Y-61398D02*
G01X222109Y-61399D01*
G01X222114Y-61391D01*
G01X222123Y-61389D01*
G01X222133Y-61393D01*
G01X222138Y-61406D01*
G01X222109D01*
G01Y-61413D01*
G01X222138D01*
G01X222133Y-61424D01*
G01X222123Y-61428D01*
G01X222112Y-61423D01*
G01X222109Y-61413D01*
G01Y-61406D01*
G01X222100D01*
G01Y-61409D01*
G01X222106Y-61428D01*
G01X222123Y-61436D01*
G01X222141Y-61428D01*
G01X222147Y-61408D01*
G01X222141Y-61388D01*
G01X222123Y-61381D01*
G01X222108Y-61386D01*
G01X222100Y-61398D01*
G37*
G36*
G01X222044Y-61409D02*
G01X222046Y-61423D01*
G01X222054Y-61432D01*
G01X222066Y-61436D01*
G01X222074Y-61434D01*
G01X222081Y-61428D01*
G01Y-61434D01*
G01X222089D01*
G01Y-61363D01*
G01X222080D01*
G01Y-61388D01*
G01X222074Y-61383D01*
G01X222067Y-61382D01*
G01Y-61389D01*
G01X222077Y-61393D01*
G01X222081Y-61408D01*
G01X222077Y-61423D01*
G01X222067Y-61429D01*
G01X222057Y-61424D01*
G01X222053Y-61409D01*
G01X222057Y-61394D01*
G01X222067Y-61389D01*
G01Y-61382D01*
G01X222066Y-61381D01*
G01X222055Y-61385D01*
G01X222047Y-61395D01*
G01X222044Y-61409D01*
G37*
G36*
G01X222033Y-61383D02*
G01Y-61454D01*
G01X222025D01*
G01Y-61428D01*
G01X222009Y-61436D01*
G01X221999Y-61433D01*
G01X221993Y-61427D01*
G01X221991Y-61415D01*
G01Y-61383D01*
G01X222000D01*
G01Y-61415D01*
G01X222003Y-61425D01*
G01X222011Y-61428D01*
G01X222018Y-61426D01*
G01X222023Y-61420D01*
G01X222025Y-61411D01*
G01Y-61383D01*
G01X222033D01*
G37*
G36*
G01X221933Y-61398D02*
G01X221942Y-61399D01*
G01X221948Y-61391D01*
G01X221956Y-61389D01*
G01X221967Y-61393D01*
G01X221972Y-61406D01*
G01X221942D01*
G01Y-61413D01*
G01X221971D01*
G01X221967Y-61424D01*
G01X221956Y-61428D01*
G01X221945Y-61423D01*
G01X221942Y-61413D01*
G01Y-61406D01*
G01X221933D01*
G01Y-61409D01*
G01X221939Y-61428D01*
G01X221956Y-61436D01*
G01X221974Y-61428D01*
G01X221981Y-61408D01*
G01X221974Y-61388D01*
G01X221956Y-61381D01*
G01X221941Y-61386D01*
G01X221933Y-61398D01*
G37*
G36*
G01X221922Y-61383D02*
G01Y-61434D01*
G01X221914D01*
G01Y-61427D01*
G01X221898Y-61436D01*
G01X221889Y-61434D01*
G01X221883Y-61429D01*
G01X221881Y-61423D01*
G01X221880Y-61414D01*
G01Y-61383D01*
G01X221889D01*
G01Y-61414D01*
G01X221890Y-61422D01*
G01X221893Y-61426D01*
G01X221900Y-61428D01*
G01X221909Y-61424D01*
G01X221913Y-61411D01*
G01Y-61383D01*
G01X221922D01*
G37*
G36*
G01X221843Y-61403D02*
G01X221834Y-61404D01*
G01X221831Y-61393D01*
G01X221823Y-61390D01*
G01X221817Y-61391D01*
G01X221814Y-61396D01*
G01X221813Y-61405D01*
G01Y-61454D01*
G01X221803D01*
G01Y-61405D01*
G01X221805Y-61391D01*
G01X221812Y-61384D01*
G01X221823Y-61381D01*
G01X221838Y-61387D01*
G01X221843Y-61403D01*
G37*
G36*
G01X221744Y-61409D02*
G01X221750Y-61429D01*
G01X221768Y-61436D01*
G01X221784Y-61430D01*
G01X221792Y-61408D01*
G01X221785Y-61388D01*
G01X221768Y-61381D01*
G01Y-61389D01*
G01X221779Y-61394D01*
G01X221783Y-61408D01*
G01X221779Y-61423D01*
G01X221768Y-61428D01*
G01X221757Y-61423D01*
G01X221753Y-61409D01*
G01X221757Y-61394D01*
G01X221768Y-61389D01*
G01Y-61381D01*
G01X221755Y-61385D01*
G01X221747Y-61393D01*
G01X221744Y-61409D01*
G37*
G36*
G01X221733Y-61383D02*
G01Y-61454D01*
G01X221725D01*
G01Y-61428D01*
G01X221709Y-61436D01*
G01X221699Y-61433D01*
G01X221693Y-61427D01*
G01X221691Y-61415D01*
G01Y-61383D01*
G01X221700D01*
G01Y-61415D01*
G01X221703Y-61425D01*
G01X221711Y-61428D01*
G01X221718Y-61426D01*
G01X221723Y-61420D01*
G01X221725Y-61411D01*
G01Y-61383D01*
G01X221733D01*
G37*
G36*
G01X221678Y-61383D02*
G01Y-61434D01*
G01X221670D01*
G01Y-61427D01*
G01X221653Y-61436D01*
G01X221645Y-61434D01*
G01X221639Y-61429D01*
G01X221636Y-61423D01*
G01Y-61414D01*
G01Y-61383D01*
G01X221644D01*
G01Y-61414D01*
G01X221645Y-61422D01*
G01X221649Y-61426D01*
G01X221655Y-61428D01*
G01X221665Y-61424D01*
G01X221669Y-61411D01*
G01Y-61383D01*
G01X221678D01*
G37*
G36*
G01X221626Y-61398D02*
G01X221617Y-61399D01*
G01X221613Y-61391D01*
G01X221604Y-61389D01*
G01X221595Y-61391D01*
G01X221592Y-61397D01*
G01X221594Y-61402D01*
G01X221603Y-61405D01*
G01X221617Y-61409D01*
G01X221622Y-61414D01*
G01X221624Y-61421D01*
G01X221623Y-61427D01*
G01X221618Y-61432D01*
G01X221613Y-61435D01*
G01X221605Y-61436D01*
G01X221594Y-61434D01*
G01X221588Y-61429D01*
G01X221585Y-61421D01*
G01X221593Y-61420D01*
G01X221597Y-61426D01*
G01X221604Y-61428D01*
G01X221613Y-61426D01*
G01X221616Y-61422D01*
G01X221615Y-61419D01*
G01X221611Y-61416D01*
G01X221604Y-61414D01*
G01X221591Y-61410D01*
G01X221585Y-61405D01*
G01X221583Y-61398D01*
G01X221585Y-61390D01*
G01X221593Y-61384D01*
G01X221604Y-61381D01*
G01X221619Y-61386D01*
G01X221626Y-61398D01*
G37*
G36*
G01X221553Y-61390D02*
G01X221552Y-61383D01*
G01X221558Y-61382D01*
G01X221566Y-61383D01*
G01X221569Y-61387D01*
G01X221571Y-61398D01*
G01Y-61428D01*
G01X221577D01*
G01Y-61434D01*
G01X221571D01*
G01Y-61447D01*
G01X221562Y-61453D01*
G01Y-61434D01*
G01X221553D01*
G01Y-61428D01*
G01X221562D01*
G01Y-61397D01*
G01X221561Y-61392D01*
G01X221560Y-61391D01*
G01X221557Y-61390D01*
G01X221553D01*
G37*
G36*
G01X221499Y-61409D02*
G01X221506Y-61429D01*
G01X221523Y-61436D01*
G01X221540Y-61430D01*
G01X221548Y-61408D01*
G01X221541Y-61388D01*
G01X221523Y-61381D01*
G01Y-61389D01*
G01X221534Y-61394D01*
G01X221539Y-61408D01*
G01X221534Y-61423D01*
G01X221523Y-61428D01*
G01X221513Y-61423D01*
G01X221508Y-61409D01*
G01X221512Y-61394D01*
G01X221523Y-61389D01*
G01Y-61381D01*
G01X221511Y-61385D01*
G01X221502Y-61393D01*
G01X221499Y-61409D01*
G37*
G36*
G01X221489Y-61383D02*
G01Y-61434D01*
G01X221481D01*
G01Y-61427D01*
G01X221464Y-61436D01*
G01X221456Y-61434D01*
G01X221450Y-61429D01*
G01X221447Y-61423D01*
G01Y-61414D01*
G01Y-61383D01*
G01X221456D01*
G01Y-61414D01*
G01X221457Y-61422D01*
G01X221460Y-61426D01*
G01X221466Y-61428D01*
G01X221476Y-61424D01*
G01X221480Y-61411D01*
G01Y-61383D01*
G01X221489D01*
G37*
D32*
G01X96964Y118674D02*
G01X96939D01*
G01Y118735D01*
G01X46964Y118674D02*
G01X46967D01*
G01Y118694D01*
M02*

