G04 ===== Begin FILE IDENTIFICATION =====*
G04 File Format:  Gerber RS274X*
G04 ===== End FILE IDENTIFICATION =====*
%FSLAX24Y24*%
%MOMM*%
%SFA1.0000B1.0000*%
%OFA0.0B0.0*%
%ADD14C,0.000025*%
%LNtext*%
%IPPOS*%
%LPD*%
G75*
D14*
G01X175415Y120032D02*
G01Y121436D01*
G01X175348Y120032D02*
G01Y121436D01*
G01X174947Y120433D02*
G01Y120968D01*
G01X175615Y120032D02*
G01X174546D01*
G01Y120433D01*
G01X174613Y120032D01*
G01X175348Y120701D02*
G01X174947D01*
G01X175615Y121436D02*
G01X174546D01*
G01Y121035D01*
G01X174613Y121436D01*
G01X170589Y100982D02*
G01Y102386D01*
G01X170522Y100982D02*
G01Y102386D01*
G01X170121Y101383D02*
G01Y101918D01*
G01X170789Y100982D02*
G01X169720D01*
G01Y101383D01*
G01X169787Y100982D01*
G01X170522Y101651D02*
G01X170121D01*
G01X170789Y102386D02*
G01X169720D01*
G01Y101985D01*
G01X169787Y102386D01*
G01X170041Y118201D02*
G01X169974Y118401D01*
G01Y118000D01*
G01X170041Y118201D01*
G01X170174Y118067D01*
G01X170375Y118000D01*
G01X170508D01*
G01X170709Y118067D01*
G01X170843Y118201D01*
G01X170910Y118334D01*
G01X170976Y118535D01*
G01Y118869D01*
G01X170910Y119070D01*
G01X170843Y119203D01*
G01X170709Y119337D01*
G01X170508Y119404D01*
G01X170375D01*
G01X170174Y119337D01*
G01X170041Y119203D01*
G01X169974Y119070D01*
G01X170508Y118000D02*
G01X170642Y118067D01*
G01X170776Y118201D01*
G01X170843Y118334D01*
G01X170910Y118535D01*
G01Y118869D01*
G01X170843Y119070D01*
G01X170776Y119203D01*
G01X170642Y119337D01*
G01X170508Y119404D01*
G01X176685Y100728D02*
G01Y102132D01*
G01X176618Y100728D02*
G01Y102132D01*
G01X176885Y100728D02*
G01X176083D01*
G01X175883Y100795D01*
G01X175816Y100862D01*
G01X175749Y100996D01*
G01Y101129D01*
G01X175816Y101263D01*
G01X175883Y101330D01*
G01X176083Y101397D01*
G01Y100728D02*
G01X175949Y100795D01*
G01X175883Y100862D01*
G01X175816Y100996D01*
G01Y101129D01*
G01X175883Y101263D01*
G01X175949Y101330D01*
G01X176083Y101397D01*
G01X176618D02*
G01X176083D01*
G01X175883Y101463D01*
G01X175816Y101530D01*
G01X175749Y101664D01*
G01Y101865D01*
G01X175816Y101998D01*
G01X175883Y102065D01*
G01X176083Y102132D01*
G01X176885D01*
G01X176083Y101397D02*
G01X175949Y101463D01*
G01X175883Y101530D01*
G01X175816Y101664D01*
G01Y101865D01*
G01X175883Y101998D01*
G01X175949Y102065D01*
G01X176083Y102132D01*
G01X180965Y121146D02*
G01Y121140D01*
G01Y121146D02*
G01Y121140D01*
G01X180964Y121144D02*
G01Y121142D01*
G01X180966Y121146D02*
G01X180962D01*
G01Y121144D01*
G01Y121146D01*
G01X180965Y121143D02*
G01X180964D01*
G01X180966Y121140D02*
G01X180962D01*
G01Y121142D01*
G01Y121140D01*
G01X180946Y121221D02*
G01Y121215D01*
G01Y121221D02*
G01Y121215D01*
G01X180945Y121219D02*
G01Y121217D01*
G01X180947Y121221D02*
G01X180943D01*
G01Y121219D01*
G01Y121221D01*
G01X180946Y121218D02*
G01X180945D01*
G01X180947Y121215D02*
G01X180943D01*
G01Y121217D01*
G01Y121215D01*
G01X180944Y121153D02*
G01Y121152D01*
G01Y121154D01*
G01Y121153D01*
G01X180945Y121154D01*
G01X180946D01*
G01X180947D01*
G01Y121153D01*
G01X180948D01*
G01Y121152D01*
G01Y121150D01*
G01X180947Y121149D01*
G01X180946Y121148D01*
G01X180945Y121149D01*
G01X180944D01*
G01Y121150D01*
G01X180946Y121154D02*
G01X180947D01*
G01Y121153D01*
G01X180948Y121152D01*
G01Y121150D01*
G01X180947D01*
G01Y121149D01*
G01X180946Y121148D01*
G01X180970Y121222D02*
G01Y121216D01*
G01Y121222D02*
G01Y121216D01*
G01X180971Y121222D02*
G01X180968D01*
G01X180967D01*
G01Y121221D01*
G01Y121220D01*
G01Y121219D01*
G01X180968D01*
G01Y121222D02*
G01X180967Y121221D01*
G01Y121220D01*
G01X180968Y121219D01*
G01X180970D02*
G01X180968D01*
G01X180967D01*
G01Y121218D01*
G01Y121217D01*
G01X180968Y121216D01*
G01X180971D01*
G01X180968Y121219D02*
G01X180967D01*
G01Y121218D01*
G01Y121217D01*
G01X180968D01*
G01Y121216D01*
M02*

